<svg xmlns="http://www.w3.org/2000/svg" xmlns:xlink="http://www.w3.org/1999/xlink" width="19" height="19" viewBox="0 0 19 19"><defs><path id="971pa" d="M826.99 29.993a.919.919 0 0 1-.281.805l-2.676 2.656c-.12.135-.278.249-.472.343a1.98 1.98 0 0 1-.573.181c-.014 0-.054.004-.121.01-.067.007-.154.01-.262.01-.254 0-.667-.043-1.237-.13-.57-.088-1.267-.303-2.091-.644-.825-.343-1.76-.857-2.806-1.54-1.046-.685-2.16-1.624-3.34-2.817-.938-.927-1.716-1.813-2.332-2.658a18.819 18.819 0 0 1-1.489-2.345 12.613 12.613 0 0 1-.845-1.952 10.317 10.317 0 0 1-.382-1.51c-.067-.422-.094-.754-.08-.996.013-.241.02-.375.02-.402.027-.189.087-.38.18-.573.095-.196.209-.353.343-.474l2.675-2.677a.887.887 0 0 1 .644-.282c.174 0 .328.05.462.15.134.102.248.226.342.374l2.152 4.085a.98.98 0 0 1 .1.704c-.053.256-.167.47-.341.645l-.986.986a.333.333 0 0 0-.07.131c-.02.06-.03.11-.03.15.053.282.174.605.362.967.16.322.409.714.744 1.178.335.462.811.996 1.428 1.6.604.617 1.14 1.096 1.61 1.439.469.341.86.594 1.176.754.315.16.556.258.724.292l.251.05c.027 0 .07-.01.131-.03a.339.339 0 0 0 .131-.07l1.146-1.167c.242-.215.523-.323.845-.323.228 0 .41.041.543.12h.02l3.882 2.296c.282.174.45.396.503.664z"/><linearGradient id="971pb" x1="818" x2="817" y1="34" y2="15" gradientUnits="userSpaceOnUse"><stop offset="0" stop-color="#0d932e"/><stop offset="1" stop-color="#aad623"/></linearGradient></defs><g><g transform="translate(-808 -15)"><use fill="#054e00" xlink:href="#971pa"/><use fill="url(#971pb)" xlink:href="#971pa"/></g></g></svg>