<svg xmlns="http://www.w3.org/2000/svg" xmlns:xlink="http://www.w3.org/1999/xlink" width="15" height="15" viewBox="0 0 15 15"><defs><path id="9ya3a" d="M1509.691 39.226c-3.088 0-5.592-2.513-5.592-5.614 0-3.1 2.504-5.614 5.592-5.614 3.089 0 5.593 2.515 5.593 5.614 0 3.1-2.504 5.614-5.593 5.614zm4.195-5.614c0-2.321-1.882-4.21-4.195-4.21-2.313 0-4.194 1.889-4.194 4.21 0 2.322 1.881 4.211 4.194 4.211 2.313 0 4.195-1.889 4.195-4.21zm4.717 8.946a1.394 1.394 0 0 1-1.977 0l-3.422-3.435a6.588 6.588 0 0 0 1.977-1.984l3.422 3.434a1.407 1.407 0 0 1 0 1.985z"/></defs><g><g transform="translate(-1504 -28)"><use fill="#054e00" xlink:href="#9ya3a"/></g></g></svg>